<svg width="69" height="68" viewBox="0 0 69 68" fill="none" xmlns="http://www.w3.org/2000/svg">
<g clip-path="url(#clip0_720_1019)">
<path d="M12.1848 0.0557404H56.6236C63.3611 0.0557404 68.8084 5.50307 68.8084 12.2406V54.9591C68.8084 61.6966 63.3611 67.1439 56.6236 67.1439H12.1848C5.44733 67.1439 0 61.6966 0 54.9591V12.2406C0 5.50307 5.44733 0.0557404 12.1848 0.0557404Z" fill="#470137"/>
<path d="M36.1819 17.6867L27.5808 31.8785L36.7553 46.9303C36.8126 47.045 36.8413 47.1597 36.8126 47.2743C36.7839 47.389 36.6693 47.303 36.4973 47.3317H29.9318C29.4731 47.3317 29.1577 47.303 28.957 47.0163C28.3549 45.8122 27.7242 44.6367 27.1221 43.4325C26.52 42.2571 25.8606 41.0529 25.1725 39.8201C24.4845 38.5873 23.7964 37.3545 23.1083 36.093H23.0509C22.4489 37.3258 21.7895 38.5586 21.13 39.7914C20.4706 41.0242 19.8112 42.2571 19.1805 43.4612C18.5211 44.6653 17.8616 45.8982 17.2022 47.0736C17.0875 47.3603 16.8582 47.389 16.5428 47.389H10.2354C10.1207 47.389 10.0347 47.4464 10.0347 47.303C10.006 47.1883 10.0347 47.0736 10.092 46.9876L19.0084 32.3658L10.3214 17.6581C10.2354 17.5434 10.2067 17.4287 10.264 17.3713C10.3214 17.2853 10.4361 17.2567 10.5507 17.2567H17.0589C17.2022 17.2567 17.3456 17.2853 17.4603 17.314C17.5749 17.3713 17.661 17.4574 17.747 17.572C18.2917 18.8049 18.9224 20.0377 19.5819 21.2705C20.2699 22.5033 20.9293 23.7075 21.6461 24.9116C22.3342 26.1157 22.9649 27.3199 23.567 28.5527H23.6243C24.2264 27.2912 24.8572 26.0584 25.4879 24.8543C26.1187 23.6501 26.7781 22.446 27.4375 21.2418C28.0969 20.0377 28.7276 18.8049 29.3584 17.6294C29.387 17.5147 29.4444 17.4 29.5304 17.3427C29.6451 17.2853 29.7598 17.2567 29.9031 17.2853H35.9525C36.0959 17.2567 36.2392 17.3427 36.2679 17.486C36.2966 17.5147 36.2392 17.6294 36.1819 17.6867Z" fill="#FF61F6"/>
<path d="M49.4274 47.9338C47.3058 47.9624 45.1842 47.5324 43.2633 46.6436C41.4571 45.8122 39.9663 44.436 38.9341 42.7445C37.8733 40.9956 37.3573 38.8167 37.3573 36.2077C37.3286 34.0861 37.8733 31.9932 38.9341 30.1583C40.0236 28.2947 41.6005 26.7465 43.4927 25.7144C45.4996 24.5963 47.9079 24.0515 50.7462 24.0515C50.8896 24.0515 51.0903 24.0515 51.3483 24.0802C51.6063 24.1089 51.893 24.1089 52.2371 24.1375V15.0778C52.2371 14.8771 52.3231 14.7624 52.5238 14.7624H58.3438C58.4872 14.7337 58.6019 14.8484 58.6305 14.9631C58.6305 14.9918 58.6305 15.0204 58.6305 15.0204V42.3144C58.6305 42.8305 58.6592 43.4039 58.6879 44.0346C58.7452 44.6367 58.7739 45.2101 58.8026 45.6975C58.8026 45.8982 58.7166 46.0702 58.5159 46.1562C57.025 46.787 55.4482 47.2457 53.8426 47.5324C52.3804 47.7904 50.9183 47.9338 49.4274 47.9338ZM52.2371 42.1997V29.5849C51.9791 29.5275 51.721 29.4702 51.463 29.4415C51.1476 29.4128 50.8323 29.3842 50.5169 29.3842C49.3987 29.3842 48.2806 29.6135 47.2772 30.1296C46.3024 30.617 45.4709 31.3337 44.8402 32.2512C44.2094 33.1686 43.8941 34.4015 43.8941 35.8923C43.8654 36.8958 44.0374 37.8992 44.3815 38.8453C44.6682 39.6194 45.0982 40.3075 45.6716 40.8809C46.2164 41.397 46.8758 41.7984 47.6212 42.0277C48.3953 42.2858 49.1981 42.4004 50.0008 42.4004C50.4309 42.4004 50.8323 42.3718 51.205 42.3431C51.5777 42.3718 51.893 42.3144 52.2371 42.1997Z" fill="#FF61F6"/>
</g>
<defs>
<clipPath id="clip0_720_1019">
<rect width="68.8084" height="67.0882" fill="white" transform="translate(0 0.0555267)"/>
</clipPath>
</defs>
</svg>
