<svg width="70" height="68" viewBox="0 0 70 68" fill="none" xmlns="http://www.w3.org/2000/svg">
<path d="M12.9597 0.0550842H57.3985C64.136 0.0550842 69.5833 5.50242 69.5833 12.2399V54.9585C69.5833 61.6959 64.136 67.1433 57.3985 67.1433H12.9597C6.22223 67.1433 0.774902 61.6959 0.774902 54.9585V12.2399C0.774902 5.50242 6.22223 0.0550842 12.9597 0.0550842Z" fill="white"/>
<g clip-path="url(#clip0_720_1029)">
<path d="M26.2287 61.1223C30.9756 61.1223 34.8281 57.2698 34.8281 52.523V43.9237H26.2287C21.4819 43.9237 17.6294 47.7762 17.6294 52.523C17.6294 57.2698 21.4819 61.1223 26.2287 61.1223Z" fill="#0ACF83"/>
<path d="M17.6294 35.3251C17.6294 30.5783 21.4819 26.7258 26.2287 26.7258H34.8281V43.9245H26.2287C21.4819 43.9245 17.6294 40.072 17.6294 35.3251Z" fill="#A259FF"/>
<path d="M17.6294 18.1258C17.6294 13.3789 21.4819 9.52644 26.2287 9.52644H34.8281V26.7251H26.2287C21.4819 26.7251 17.6294 22.8726 17.6294 18.1258Z" fill="#F24E1E"/>
<path d="M34.8281 9.52644H43.4275C48.1743 9.52644 52.0268 13.3789 52.0268 18.1258C52.0268 22.8726 48.1743 26.7251 43.4275 26.7251H34.8281V9.52644Z" fill="#FF7262"/>
<path d="M52.0268 35.3251C52.0268 40.072 48.1743 43.9245 43.4275 43.9245C38.6806 43.9245 34.8281 40.072 34.8281 35.3251C34.8281 30.5783 38.6806 26.7258 43.4275 26.7258C48.1743 26.7258 52.0268 30.5783 52.0268 35.3251Z" fill="#1ABCFE"/>
</g>
<defs>
<clipPath id="clip0_720_1029">
<rect width="34.4042" height="51.596" fill="white" transform="translate(17.626 9.52675)"/>
</clipPath>
</defs>
</svg>
